<?xml version="1.0" standalone="no"?>
<!DOCTYPE svg PUBLIC "-//W3C//DTD SVG 20010904//EN"
 "http://www.w3.org/TR/2001/REC-SVG-20010904/DTD/svg10.dtd">
<svg version="1.0" xmlns="http://www.w3.org/2000/svg"
 width="260.000000pt" height="260.000000pt" viewBox="0 0 260.000000 260.000000"
 preserveAspectRatio="xMidYMid meet">
<metadata>
Created by potrace 1.11, written by Peter Selinger 2001-2013
</metadata>
<g transform="translate(0.000000,260.000000) scale(0.100000,-0.100000)"
fill="#000000" stroke="none">
<path d="M2438 1475 c-2 -897 0 -1124 10 -1120 6 2 12 0 12 -5 0 -13 -27 -13
-34 -1 -3 5 -14 7 -24 4 -10 -2 -31 1 -47 8 -17 7 -38 11 -49 10 -11 -2 -16 2
-11 9 4 7 1 10 -6 9 -22 -4 -69 12 -64 22 3 4 13 6 23 3 14 -5 14 -4 3 4 -8 6
-23 9 -33 7 -10 -2 -18 1 -18 6 0 6 -4 7 -10 4 -5 -3 -10 -2 -10 3 0 13 -92
60 -106 55 -30 -10 -113 124 -133 215 -17 80 -14 106 14 132 82 77 126 229
125 431 0 133 -42 309 -73 309 -8 0 -26 9 -40 21 -15 11 -36 22 -47 24 -11 2
-24 7 -30 10 -11 7 -60 -4 -60 -14 0 -3 16 -16 34 -28 82 -53 176 -233 176
-336 0 -80 -46 -148 -99 -146 -14 0 -20 3 -13 6 16 6 16 23 -1 23 -10 0 -17
32 -25 118 -12 122 -33 201 -83 311 -34 75 -35 78 -11 60 15 -13 16 -12 3 3
-7 10 -16 16 -20 13 -11 -6 -43 53 -36 65 3 6 0 10 -8 10 -8 0 -34 25 -57 55
-79 103 -242 248 -327 293 -43 23 -100 60 -128 82 -63 53 -104 75 -117 62 -6
-6 21 -35 74 -81 46 -39 115 -107 153 -151 58 -66 72 -77 81 -65 12 17 20 10
63 -52 18 -27 20 -35 10 -52 -18 -27 13 -76 39 -62 15 8 23 1 49 -42 40 -67
105 -222 133 -315 13 -41 29 -76 37 -79 10 -4 11 -8 3 -13 -9 -5 -9 -22 -1
-65 6 -32 11 -77 11 -100 0 -22 9 -65 20 -95 18 -51 18 -56 2 -68 -11 -8 -18
-9 -20 -2 -2 5 -11 10 -20 10 -13 0 -14 -2 -4 -9 11 -7 11 -9 -2 -14 -9 -4
-16 -17 -16 -30 0 -73 -58 -218 -114 -283 -27 -31 -31 -41 -18 -41 9 0 22 3
27 8 7 5 15 -16 23 -59 7 -37 26 -94 42 -126 24 -47 26 -55 10 -41 -19 17 -50
15 -50 -5 0 -21 38 -81 43 -68 3 8 6 6 6 -6 1 -12 6 -16 15 -13 10 4 13 1 10
-7 -6 -15 62 -76 83 -76 7 0 13 -4 13 -9 0 -8 160 -63 177 -60 4 1 10 1 13 -1
3 -1 23 -2 44 -3 30 -2 40 2 44 15 2 10 8 15 13 12 5 -3 7 -10 4 -15 -4 -5 -1
-9 4 -9 6 0 11 6 11 14 0 9 8 12 24 9 16 -3 45 6 82 28 31 18 55 28 52 23 -4
-5 10 -9 30 -10 21 -1 31 1 25 3 -7 3 -13 9 -13 15 0 6 7 7 16 4 14 -5 15 -4
5 8 -9 11 -6 17 14 30 14 9 25 14 25 11 0 -4 7 1 16 9 8 9 19 14 24 11 5 -3
11 1 14 7 5 11 7 11 12 0 3 -6 11 -9 16 -6 7 4 8 2 4 -4 -4 -6 -13 -9 -21 -5
-13 4 -15 -17 -15 -141 l0 -146 80 0 80 0 0 1300 0 1300 -80 0 -80 0 -2 -1125z
m-598 -170 c0 -8 -10 -19 -21 -26 -16 -8 -20 -8 -14 0 5 8 -2 10 -22 6 -21 -5
-24 -4 -13 4 8 6 26 11 39 11 17 0 22 4 17 16 -3 8 -2 12 4 9 6 -3 10 -13 10
-20z m6 -113 c-6 -6 -46 32 -46 44 0 3 7 3 16 0 8 -3 13 -2 9 3 -3 5 1 11 7
14 13 4 25 -49 14 -61z m-47 -344 c-6 -15 -25 -38 -42 -50 l-30 -22 7 25 c4
13 12 47 18 76 8 35 18 55 32 61 19 8 21 5 24 -26 2 -19 -2 -48 -9 -64z m77
-102 c8 -34 3 -39 -72 -81 -53 -30 -68 -35 -75 -24 -12 20 -11 29 5 35 10 4
12 12 7 27 -7 19 -2 24 53 43 77 28 75 28 82 0z m74 -220 c19 -31 19 -37 6
-42 -8 -3 -19 -3 -24 0 -5 3 -20 -6 -33 -20 -13 -14 -44 -38 -68 -52 -43 -25
-44 -25 -58 -6 -20 25 -59 111 -67 146 -6 25 0 30 86 81 l92 54 22 -63 c12
-35 32 -79 44 -98z m-227 110 c6 -15 -1 -26 -15 -26 -4 0 -8 9 -8 20 0 23 15
27 23 6z m128 -267 c-15 -17 -24 -20 -32 -12 -8 8 -3 15 17 26 37 19 42 14 15
-14z"/>
<path d="M1160 2550 c-13 -8 -13 -9 0 -14 8 -2 40 -12 70 -22 75 -23 140 -56
236 -121 53 -35 86 -51 98 -47 22 9 8 25 -64 74 -81 55 -187 107 -255 125 -69
18 -66 17 -85 5z"/>
<path d="M730 2351 c-12 -8 -8 -11 19 -11 48 0 143 -27 223 -62 50 -22 72 -28
80 -20 38 38 -272 127 -322 93z"/>
<path d="M1656 2254 c-4 -10 10 -35 37 -67 24 -29 65 -81 92 -115 43 -58 49
-62 63 -48 14 14 12 20 -21 68 -43 62 -145 178 -157 178 -4 0 -11 -7 -14 -16z"/>
<path d="M895 1979 c-81 -47 -89 -54 -55 -45 16 5 7 -4 -23 -24 -27 -17 -47
-36 -44 -43 2 -7 26 -29 53 -49 39 -30 58 -38 91 -38 49 0 71 24 83 90 9 47
-7 150 -23 150 -7 0 -43 -19 -82 -41z"/>
<path d="M1123 2008 c-17 -22 -33 -79 -33 -118 0 -25 -5 -40 -16 -44 -8 -3
-12 -11 -8 -17 4 -8 9 -7 15 2 6 10 9 9 15 -6 38 -115 115 -225 188 -271 26
-17 43 -35 41 -42 -3 -8 0 -10 7 -6 6 4 27 9 47 11 54 6 74 32 79 101 10 144
-87 315 -217 382 -45 22 -104 26 -118 8z"/>
<path d="M1880 1931 c0 -28 26 -47 45 -31 11 9 12 17 4 31 -13 25 -49 25 -49
0z"/>
<path d="M331 1753 c1 -21 4 -51 8 -68 7 -29 7 -29 15 -7 4 12 12 22 17 22 13
0 4 57 -11 76 -20 24 -30 16 -29 -23z"/>
<path d="M706 1764 c-19 -49 2 -276 28 -301 2 -3 12 10 21 27 23 45 21 143 -5
211 -28 75 -35 85 -44 63z"/>
<path d="M1032 1584 c1 -9 9 -19 16 -22 9 -3 13 2 10 14 -1 9 -9 19 -16 22 -9
3 -13 -2 -10 -14z"/>
<path d="M1020 1461 c0 -11 8 -27 18 -37 16 -17 17 -17 20 5 4 22 -13 51 -29
51 -5 0 -9 -9 -9 -19z"/>
<path d="M920 1446 c0 -16 24 -38 33 -30 8 9 -11 44 -23 44 -6 0 -10 -6 -10
-14z"/>
<path d="M1343 1404 c-10 -16 -19 -53 -21 -93 -3 -39 -10 -69 -17 -73 -14 -8
-9 -44 6 -54 5 -3 6 2 3 11 -4 10 -2 13 7 10 8 -3 30 -37 49 -75 18 -39 37
-70 42 -70 7 0 33 13 136 72 38 22 53 26 56 16 2 -7 7 -58 10 -112 3 -54 8
-102 11 -105 3 -3 14 0 23 5 14 9 17 30 18 125 2 104 -1 119 -25 168 -74 153
-246 254 -298 175z"/>
<path d="M780 1346 c0 -12 74 -130 111 -176 23 -29 36 -50 30 -46 -7 4 -20 2
-29 -5 -14 -11 -15 -11 -4 1 6 8 12 19 12 24 0 26 -31 -38 -32 -65 -1 -16 -4
-32 -9 -34 -4 -3 -5 -14 -2 -25 5 -17 0 -20 -26 -20 -17 0 -31 -4 -31 -9 0 -5
-7 -12 -16 -15 -11 -4 -15 -2 -11 7 3 7 -3 13 -14 13 -17 0 -17 -1 -1 -21 50
-59 84 -83 132 -95 45 -11 53 -10 70 5 89 80 20 313 -129 438 -30 24 -51 34
-51 23z"/>
<path d="M1130 1322 c0 -11 7 -22 15 -26 9 -3 15 0 15 8 0 7 -7 19 -15 26 -12
10 -15 9 -15 -8z"/>
<path d="M1060 1200 c8 -5 24 -9 35 -9 l20 0 -20 9 c-11 5 -27 9 -35 9 -13 1
-13 0 0 -9z"/>
<path d="M1128 1099 c-28 -16 -41 -82 -29 -155 18 -119 94 -245 179 -299 29
-18 41 -33 37 -42 -4 -11 -1 -13 12 -8 10 4 33 10 52 14 105 19 101 195 -8
356 -75 110 -183 170 -243 134z"/>
<path d="M1427 989 c7 -7 15 -10 18 -7 3 3 -2 9 -12 12 -14 6 -15 5 -6 -5z"/>
<path d="M1500 975 c7 -9 15 -13 17 -11 7 7 -7 26 -19 26 -6 0 -6 -6 2 -15z"/>
<path d="M626 970 c5 -8 9 -29 10 -46 1 -35 44 -96 108 -154 22 -19 44 -40 50
-45 6 -6 32 -24 58 -40 27 -17 48 -33 48 -37 0 -5 6 -8 14 -8 8 0 22 -7 30
-16 9 -8 16 -12 16 -8 0 3 6 2 13 -4 46 -37 220 -113 305 -133 26 -6 72 -10
101 -10 45 1 60 6 83 28 37 36 19 47 -53 33 -38 -7 -77 -7 -129 1 -165 24
-328 117 -500 285 -59 57 -110 101 -115 96 -4 -4 -5 -2 -1 5 3 6 -5 24 -20 40
-14 15 -22 21 -18 13z"/>
<path d="M2364 238 c10 -6 22 -6 26 -2 5 5 -3 10 -18 11 -22 1 -24 0 -8 -9z"/>
</g>
</svg>
